<?xml version="1.0" encoding="utf-8"?>
<!-- Generator: Adobe Illustrator 23.0.1, SVG Export Plug-In . SVG Version: 6.00 Build 0)  -->
<svg version="1.1" xmlns="http://www.w3.org/2000/svg" xmlns:xlink="http://www.w3.org/1999/xlink" x="0px" y="0px"
	 viewBox="0 0 249 313" style="enable-background:new 0 0 249 313;" xml:space="preserve">
<style type="text/css">
	.st0{fill:#FFFFFF;}
	.st1{opacity:0.8;}
	.st2{opacity:0.6;}
</style>
<g id="gitlab">
	<g>
		<g id="g48_5_" transform="translate(155.197863, 1.160267)">
			<path id="path50_5_" class="st0" d="M-374.2,311.8L-374.2,311.8l62.2-191.3h-124.3L-374.2,311.8L-374.2,311.8z"/>
		</g>
		<g id="g56_4_" transform="translate(28.531199, 1.160800)" class="st1">
			<path id="path58_4_" class="st0" d="M-247.5,311.8l-62.2-191.3h-87L-247.5,311.8L-247.5,311.8z"/>
		</g>
		<g id="g64_5_" transform="translate(0.088533, 0.255867)" class="st2">
			<path id="path66_5_" class="st0" d="M-368.3,121.4L-368.3,121.4l-18.9,58.1c-1.7,5.3,0.1,11.1,4.7,14.4l163.5,118.8L-368.3,121.4
				L-368.3,121.4z"/>
		</g>
		<g id="g72_5_" transform="translate(29.421866, 280.255593)">
			<path id="path74_5_" class="st0" d="M-397.6-158.6h87.1L-348-273.8c-1.9-5.9-10.3-5.9-12.3,0L-397.6-158.6L-397.6-158.6z"/>
		</g>
		<g id="g76_4_" transform="translate(247.197860, 1.160800)" class="st1">
			<path id="path78_4_" class="st0" d="M-466.2,311.8l62.2-191.3h87.1L-466.2,311.8L-466.2,311.8z"/>
		</g>
		<g id="g80_5_" transform="translate(246.307061, 0.255867)" class="st2">
			<path id="path82_5_" class="st0" d="M-316.1,121.4L-316.1,121.4l18.9,58.1c1.7,5.3-0.1,11.1-4.7,14.4l-163.5,118.7L-316.1,121.4
				L-316.1,121.4z"/>
		</g>
		<g id="g84_5_" transform="translate(336.973725, 280.255593)">
			<path id="path86_5_" class="st0" d="M-406.7-158.6h-87.1l37.4-115.2c1.9-5.9,10.3-5.9,12.3,0L-406.7-158.6L-406.7-158.6z"/>
		</g>
	</g>
</g>
<g id="profile">
	<g>
		<path class="st0" d="M-219.1,153.9c34.5,0,62.5-34,62.5-75.9c0-41.9-9.2-75.9-62.5-75.9s-62.5,34-62.5,75.9
			C-281.6,119.9-253.6,153.9-219.1,153.9L-219.1,153.9z M-219.1,153.9"/>
		<path class="st0" d="M-337.1,269.8C-337.1,267.2-337.2,269.1-337.1,269.8L-337.1,269.8z M-337.1,269.8"/>
		<path class="st0" d="M-101,271.8C-101,271.1-101,266.9-101,271.8L-101,271.8z M-101,271.8"/>
		<path class="st0" d="M-101.1,266.7c-1.2-73-10.7-93.9-83.7-107c0,0-10.3,13.1-34.2,13.1s-34.2-13.1-34.2-13.1
			c-72.2,13-82.3,33.5-83.7,104.7c-0.1,5.8-0.2,6.1-0.2,5.4c0,1.3,0,3.6,0,7.7c0,0,17.4,35,118.1,35c100.7,0,118.1-35,118.1-35
			c0-2.6,0-4.4,0-5.7C-101,272.2-101.1,271.4-101.1,266.7L-101.1,266.7z M-101.1,266.7"/>
	</g>
</g>
<g id="cv">
	<g>
		<path class="st0" d="M212.9,2H37.3C17.8,2,2,17.8,2,37.3v239.4C2,296.2,17.8,312,37.3,312h175.5c19.5,0,35.3-15.8,35.3-35.3V37.3
			C248.2,17.8,232.4,2,212.9,2L212.9,2z M35.1,121c0-8.3,6.7-15,15-15h5.3c-5.6-6.2-9-14.3-9-23.3c0-19.2,15.6-34.8,34.8-34.8
			c19.3,0,34.8,15.6,34.8,34.8c0,9-3.4,17.1-9,23.3h5c8.3,0,15,6.7,15,15v25.3c0,7.9-6.2,14.3-13.9,14.9H49
			c-7.8-0.5-13.9-6.9-13.9-14.9V121z M201,266.1H49.2c-7.8,0-14.1-6.3-14.1-14.1c0-7.8,6.3-14.1,14.1-14.1H201
			c7.8,0,14.1,6.3,14.1,14.1C215.1,259.8,208.7,266.1,201,266.1L201,266.1z M201,213.2H49.2c-7.8,0-14.1-6.3-14.1-14.1
			c0-7.8,6.3-14.1,14.1-14.1H201c7.8,0,14.1,6.3,14.1,14.1C215.1,206.9,208.7,213.2,201,213.2L201,213.2z M201,160.2h-45.9
			c-7.8,0-14.1-6.3-14.1-14.1c0-7.8,6.3-14.1,14.1-14.1H201c7.8,0,14.1,6.3,14.1,14.1C215.1,153.9,208.7,160.2,201,160.2L201,160.2z
			 M201,160.2"/>
	</g>
</g>
<g id="email">
	<g>
		<path class="st0" d="M343.4,103.5c4.3,3,17.1,11.9,38.5,26.8c21.4,14.8,37.8,26.3,49.2,34.3c1.3,0.9,3.9,2.8,8,5.7
			c4.1,2.9,7.5,5.3,10.1,7.1c2.7,1.8,5.9,3.9,9.8,6.1c3.8,2.3,7.4,3.9,10.8,5.1c3.4,1.1,6.5,1.7,9.4,1.7h0.4c2.9,0,6-0.6,9.4-1.7
			c3.4-1.1,7-2.8,10.8-5.1c3.8-2.3,7.1-4.3,9.8-6.1c2.7-1.8,6.1-4.2,10.1-7.1c4.1-2.9,6.7-4.9,8-5.7c11.5-8,40.8-28.4,87.9-61
			c9.1-6.4,16.8-14.1,22.9-23.1c6.1-9,9.2-18.5,9.2-28.4c0-8.3-3-15.3-8.9-21.2c-5.9-5.9-13-8.8-21.1-8.8H341.1
			c-9.6,0-17.1,3.3-22.3,9.8c-5.2,6.5-7.8,14.7-7.8,24.4c0,7.9,3.4,16.4,10.3,25.6C328.3,91,335.6,98.3,343.4,103.5L343.4,103.5z
			 M343.4,103.5"/>
		<path class="st0" d="M628.9,123.6c-41.1,27.8-72.3,49.4-93.5,64.8c-7.1,5.3-12.9,9.4-17.4,12.3c-4.4,2.9-10.4,5.9-17.8,9
			c-7.4,3.1-14.3,4.6-20.7,4.6h-0.4c-6.4,0-13.3-1.5-20.7-4.6c-7.4-3.1-13.3-6.1-17.8-9c-4.4-2.9-10.2-7-17.4-12.3
			c-16.9-12.4-48-34-93.4-64.8c-7.1-4.8-13.5-10.2-19-16.3v149.1c0,8.3,2.9,15.3,8.8,21.2c5.9,5.9,13,8.8,21.2,8.8h276.5
			c8.3,0,15.3-2.9,21.2-8.8c5.9-5.9,8.8-13,8.8-21.2V107.3C642.3,113.3,636.1,118.7,628.9,123.6L628.9,123.6z M628.9,123.6"/>
	</g>
</g>
<g id="linkedin">
	<g>
		<rect x="320" y="100.5" class="st0" width="69.4" height="208.4"/>
		<path class="st0" d="M617.1,119.5c-14.6-15.9-33.9-23.9-57.8-23.9c-8.8,0-16.9,1.1-24.1,3.3c-7.2,2.2-13.3,5.2-18.3,9.1
			c-5,3.9-8.9,7.6-11.9,10.9c-2.8,3.2-5.5,6.9-8.2,11.1v-29.6h-69.2l0.2,10.1c0.1,6.7,0.2,27.5,0.2,62.2s-0.1,80.1-0.4,136.1h69.2
			V192.6c0-7.1,0.8-12.8,2.3-17c2.9-7.2,7.4-13.1,13.4-18c6-4.8,13.4-7.3,22.2-7.3c12.1,0,20.9,4.2,26.6,12.5
			c5.7,8.3,8.5,19.9,8.5,34.6v111.4H639V189.5C639,158.8,631.7,135.5,617.1,119.5L617.1,119.5z M617.1,119.5"/>
		<path class="st0" d="M355.1,0.2c-11.6,0-21.1,3.4-28.3,10.2c-7.2,6.8-10.8,15.4-10.8,25.8c0,10.2,3.5,18.8,10.5,25.7
			c7,6.9,16.3,10.3,27.8,10.3h0.4c11.8,0,21.3-3.4,28.5-10.3c7.2-6.9,10.8-15.4,10.6-25.7c-0.1-10.4-3.7-19-10.7-25.8
			C376.1,3.6,366.7,0.2,355.1,0.2L355.1,0.2z M355.1,0.2"/>
	</g>
</g>
</svg>
