<?xml version="1.0" encoding="utf-8"?>
<!-- Generator: Adobe Illustrator 23.0.1, SVG Export Plug-In . SVG Version: 6.00 Build 0)  -->
<svg version="1.1" xmlns="http://www.w3.org/2000/svg" xmlns:xlink="http://www.w3.org/1999/xlink" x="0px" y="0px"
	 viewBox="0 0 325 311" style="enable-background:new 0 0 325 311;" xml:space="preserve">
<style type="text/css">
	.st0{fill:#FFFFFF;}
	.st1{opacity:0.8;}
	.st2{opacity:0.6;}
</style>
<g id="gitlab">
	<g>
		<g id="g48_5_" transform="translate(155.197863, 1.160267)">
			<path id="path50_5_" class="st0" d="M-346.2,312.8L-346.2,312.8l62.2-191.3h-124.3L-346.2,312.8L-346.2,312.8z"/>
		</g>
		<g id="g56_4_" transform="translate(28.531199, 1.160800)" class="st1">
			<path id="path58_4_" class="st0" d="M-219.5,312.8l-62.2-191.3h-87L-219.5,312.8L-219.5,312.8z"/>
		</g>
		<g id="g64_5_" transform="translate(0.088533, 0.255867)" class="st2">
			<path id="path66_5_" class="st0" d="M-340.3,122.4L-340.3,122.4l-18.9,58.1c-1.7,5.3,0.1,11.1,4.7,14.4l163.5,118.8L-340.3,122.4
				L-340.3,122.4z"/>
		</g>
		<g id="g72_5_" transform="translate(29.421866, 280.255593)">
			<path id="path74_5_" class="st0" d="M-369.6-157.6h87.1L-320-272.8c-1.9-5.9-10.3-5.9-12.3,0L-369.6-157.6L-369.6-157.6z"/>
		</g>
		<g id="g76_4_" transform="translate(247.197860, 1.160800)" class="st1">
			<path id="path78_4_" class="st0" d="M-438.2,312.8l62.2-191.3h87.1L-438.2,312.8L-438.2,312.8z"/>
		</g>
		<g id="g80_5_" transform="translate(246.307061, 0.255867)" class="st2">
			<path id="path82_5_" class="st0" d="M-288.1,122.4L-288.1,122.4l18.9,58.1c1.7,5.3-0.1,11.1-4.7,14.4l-163.5,118.7L-288.1,122.4
				L-288.1,122.4z"/>
		</g>
		<g id="g84_5_" transform="translate(336.973725, 280.255593)">
			<path id="path86_5_" class="st0" d="M-378.7-157.6h-87.1l37.4-115.2c1.9-5.9,10.3-5.9,12.3,0L-378.7-157.6L-378.7-157.6z"/>
		</g>
	</g>
</g>
<g id="profile">
	<g>
		<path class="st0" d="M-191.1,154.9c34.5,0,62.5-34,62.5-75.9c0-41.9-9.2-75.9-62.5-75.9s-62.5,34-62.5,75.9
			C-253.6,120.9-225.6,154.9-191.1,154.9L-191.1,154.9z M-191.1,154.9"/>
		<path class="st0" d="M-309.1,270.8C-309.1,268.2-309.2,270.1-309.1,270.8L-309.1,270.8z M-309.1,270.8"/>
		<path class="st0" d="M-73,272.8C-73,272.1-73,267.9-73,272.8L-73,272.8z M-73,272.8"/>
		<path class="st0" d="M-73.1,267.7c-1.2-73-10.7-93.9-83.7-107c0,0-10.3,13.1-34.2,13.1s-34.2-13.1-34.2-13.1
			c-72.2,13-82.3,33.5-83.7,104.7c-0.1,5.8-0.2,6.1-0.2,5.4c0,1.3,0,3.6,0,7.7c0,0,17.4,35,118.1,35c100.7,0,118.1-35,118.1-35
			c0-2.6,0-4.4,0-5.7C-73,273.2-73.1,272.4-73.1,267.7L-73.1,267.7z M-73.1,267.7"/>
	</g>
</g>
<g id="cv">
	<g>
		<path class="st0" d="M-108.1,3h-175.6C-303.2,3-319,18.8-319,38.3v239.4c0,19.5,15.8,35.3,35.3,35.3h175.5
			c19.5,0,35.3-15.8,35.3-35.3V38.3C-72.8,18.8-88.6,3-108.1,3L-108.1,3z M-285.9,122c0-8.3,6.7-15,15-15h5.3
			c-5.6-6.2-9-14.3-9-23.3c0-19.2,15.6-34.8,34.8-34.8c19.3,0,34.8,15.6,34.8,34.8c0,9-3.4,17.1-9,23.3h5c8.3,0,15,6.7,15,15v25.3
			c0,7.9-6.2,14.3-13.9,14.9H-272c-7.8-0.5-13.9-6.9-13.9-14.9V122z M-120,267.1h-151.8c-7.8,0-14.1-6.3-14.1-14.1
			c0-7.8,6.3-14.1,14.1-14.1H-120c7.8,0,14.1,6.3,14.1,14.1C-105.9,260.8-112.3,267.1-120,267.1L-120,267.1z M-120,214.2h-151.8
			c-7.8,0-14.1-6.3-14.1-14.1c0-7.8,6.3-14.1,14.1-14.1H-120c7.8,0,14.1,6.3,14.1,14.1C-105.9,207.9-112.3,214.2-120,214.2
			L-120,214.2z M-120,161.2h-45.9c-7.8,0-14.1-6.3-14.1-14.1c0-7.8,6.3-14.1,14.1-14.1h45.9c7.8,0,14.1,6.3,14.1,14.1
			C-105.9,154.9-112.3,161.2-120,161.2L-120,161.2z M-120,161.2"/>
	</g>
</g>
<g id="email">
	<g>
		<path class="st0" d="M-326.6,104.5c4.3,3,17.1,11.9,38.5,26.8c21.4,14.8,37.8,26.3,49.2,34.3c1.3,0.9,3.9,2.8,8,5.7
			c4.1,2.9,7.5,5.3,10.1,7.1c2.7,1.8,5.9,3.9,9.8,6.1c3.8,2.3,7.4,3.9,10.8,5.1c3.4,1.1,6.5,1.7,9.4,1.7h0.4c2.9,0,6-0.6,9.4-1.7
			c3.4-1.1,7-2.8,10.8-5.1c3.8-2.3,7.1-4.3,9.8-6.1c2.7-1.8,6.1-4.2,10.1-7.1c4.1-2.9,6.7-4.9,8-5.7c11.5-8,40.8-28.4,87.9-61
			c9.1-6.4,16.8-14.1,22.9-23.1c6.1-9,9.2-18.5,9.2-28.4c0-8.3-3-15.3-8.9-21.2c-5.9-5.9-13-8.8-21.1-8.8h-276.5
			c-9.6,0-17.1,3.3-22.3,9.8c-5.2,6.5-7.8,14.7-7.8,24.4c0,7.9,3.4,16.4,10.3,25.6C-341.7,92-334.4,99.3-326.6,104.5L-326.6,104.5z
			 M-326.6,104.5"/>
		<path class="st0" d="M-41.1,124.6c-41.1,27.8-72.3,49.4-93.5,64.8c-7.1,5.3-12.9,9.4-17.4,12.3c-4.4,2.9-10.4,5.9-17.8,9
			c-7.4,3.1-14.3,4.6-20.7,4.6h-0.4c-6.4,0-13.3-1.5-20.7-4.6c-7.4-3.1-13.3-6.1-17.8-9c-4.4-2.9-10.2-7-17.4-12.3
			c-16.9-12.4-48-34-93.4-64.8c-7.1-4.8-13.5-10.2-19-16.3v149.1c0,8.3,2.9,15.3,8.8,21.2c5.9,5.9,13,8.8,21.2,8.8h276.5
			c8.3,0,15.3-2.9,21.2-8.8c5.9-5.9,8.8-13,8.8-21.2V108.3C-27.7,114.3-33.9,119.7-41.1,124.6L-41.1,124.6z M-41.1,124.6"/>
	</g>
</g>
<g id="linkedin">
	<g>
		<rect x="5" y="101.5" class="st0" width="69.4" height="208.4"/>
		<path class="st0" d="M302.1,120.5c-14.6-15.9-33.9-23.9-57.8-23.9c-8.8,0-16.9,1.1-24.1,3.3c-7.2,2.2-13.3,5.2-18.3,9.1
			c-5,3.9-8.9,7.6-11.9,10.9c-2.8,3.2-5.5,6.9-8.2,11.1v-29.6h-69.2l0.2,10.1c0.1,6.7,0.2,27.5,0.2,62.2s-0.1,80.1-0.4,136.1h69.2
			V193.6c0-7.1,0.8-12.8,2.3-17c2.9-7.2,7.4-13.1,13.4-18c6-4.8,13.4-7.3,22.2-7.3c12.1,0,20.9,4.2,26.6,12.5
			c5.7,8.3,8.5,19.9,8.5,34.6v111.4H324V190.5C324,159.8,316.7,136.5,302.1,120.5L302.1,120.5z M302.1,120.5"/>
		<path class="st0" d="M40.1,1.2c-11.6,0-21.1,3.4-28.3,10.2C4.6,18.2,1,26.8,1,37.2c0,10.2,3.5,18.8,10.5,25.7
			c7,6.9,16.3,10.3,27.8,10.3h0.4c11.8,0,21.3-3.4,28.5-10.3c7.2-6.9,10.8-15.4,10.6-25.7c-0.1-10.4-3.7-19-10.7-25.8
			C61.1,4.6,51.7,1.2,40.1,1.2L40.1,1.2z M40.1,1.2"/>
	</g>
</g>
</svg>
