<?xml version="1.0" encoding="utf-8"?>
<!-- Generator: Adobe Illustrator 23.0.1, SVG Export Plug-In . SVG Version: 6.00 Build 0)  -->
<svg version="1.1" id="R" xmlns="http://www.w3.org/2000/svg" xmlns:xlink="http://www.w3.org/1999/xlink" x="0px" y="0px"
	 viewBox="0 0 216 318.1" style="enable-background:new 0 0 216 318.1;" xml:space="preserve">
<style type="text/css">
	.st0{fill:none;stroke:#AA2500;stroke-width:5.000000e-02;stroke-miterlimit:10;}
	.st1{opacity:0.49;}
	.st2{fill:#00CC6A;}
	.st3{opacity:0.5;fill:url(#SVGID_1_);enable-background:new    ;}
</style>
<path class="st0" d="M-10,195.6"/>
<path class="st0" d="M19.1,223.7"/>
<g class="st1">
	<path class="st2" d="M67.3,105.3c0,21.3,17.3,38.6,38.6,38.6C84.6,143.9,67.4,126.6,67.3,105.3C67.4,84,84.7,66.7,106,66.7h101.3
		c2,0,4-0.8,5.3-2.3c1.3-1.6,2.1-3.9,0-7.2c-4.2-6.5-28.7-51.5-28.7-51.5s-1.6-3.6-8.1-3.6h-69.9C49,2.1,2.8,48.3,2.8,105.3
		C2.8,48.3,67.3,83.9,67.3,105.3z"/>
	<path class="st2" d="M105.9,143.9c-21.3,0-38.6-17.3-38.6-38.6c0-21.4-64.5-57-64.5,0c0,56.9,46.2,103.1,103.1,103.1h6.6l69.3-64.4
		L105.9,143.9z"/>
	
		<linearGradient id="SVGID_1_" gradientUnits="userSpaceOnUse" x1="157.159" y1="261.165" x2="60.1989" y2="93.2252" gradientTransform="matrix(-1 0 0 -1 203.4944 320)">
		<stop  offset="0" style="stop-color:#00CC6A;stop-opacity:0"/>
		<stop  offset="0.1018" style="stop-color:#00C164;stop-opacity:0.1018"/>
		<stop  offset="0.2787" style="stop-color:#00A556;stop-opacity:0.2787"/>
		<stop  offset="0.5095" style="stop-color:#00773E;stop-opacity:0.5095"/>
		<stop  offset="0.7821" style="stop-color:#00381D;stop-opacity:0.7821"/>
		<stop  offset="1" style="stop-color:#000000"/>
	</linearGradient>
	<path class="st3" d="M105.9,143.9c-21.3,0-38.6-17.3-38.6-38.6c0-21.4-64.5-57-64.5,0c0,56.9,46.2,103.1,103.1,103.1h6.6l69.3-64.4
		L105.9,143.9z"/>
	<path class="st2" d="M181.8,144l-69.3,64.4L5.1,308.2c-0.4,0.4-0.7,0.8-1,1.2c-1.1,1.6-3,5.2,0.6,6.1c4.6,1.1,94.3,0,94.3,0
		s2,0.3,6-3.1c4.1-3.4,106.8-103,106.8-103s4-3.4,0.7-9C208.5,193.7,181.8,144,181.8,144z"/>
</g>
</svg>
